<!-- Generated by IcoMoon.io -->
<svg version="1.1" xmlns="http://www.w3.org/2000/svg" width="32" height="32" viewBox="0 0 32 32">
<title>image2vector</title>
<path fill="#d23e31" d="M8.668 2.812c-0.221 0.219-0.396 0.416-0.39 0.438s-0.004 0.031-0.022 0.020c-0.046-0.029-0.397 0.337-0.362 0.376 0.016 0.018 0.011 0.022-0.013 0.008-0.045-0.025-0.244 0.173-0.244 0.243 0 0.022-0.013 0.033-0.029 0.023-0.037-0.023-0.127 0.074-0.096 0.104 0.013 0.013 0.002 0.023-0.023 0.023-0.060 0-0.234 0.174-0.234 0.234 0 0.026-0.010 0.036-0.023 0.023-0.024-0.024-0.336 0.264-0.753 0.692-0.701 0.72-1.286 1.292-1.304 1.274-0.011-0.011-0.021 0.009-0.021 0.045s-0.017 0.055-0.038 0.042c-0.034-0.021-0.055 0.029-0.043 0.105 0.003 0.016-0.017 0.024-0.043 0.019s-0.043 0.013-0.037 0.041c0.006 0.028-0.006 0.041-0.025 0.028s-0.128 0.075-0.24 0.193c-0.316 0.333-0.72 0.734-1.024 1.017-0.153 0.142-0.265 0.258-0.251 0.258s-0.030 0.047-0.1 0.105c-0.249 0.206-0.689 0.678-0.729 0.783-0.014 0.037-0.052 0.067-0.084 0.067s-0.058 0.027-0.058 0.060-0.014 0.051-0.030 0.041c-0.039-0.024-0.737 0.647-0.706 0.678 0.013 0.013 0.002 0.024-0.024 0.024s-0.133 0.090-0.239 0.2c-0.502 0.524-0.802 0.831-0.814 0.831-0.007 0-0.161 0.147-0.341 0.326l-0.328 0.326-0.001 9.032c-0 6.176 0.012 9.055 0.039 9.106 0.058 0.108 0.118 0.089 0.247-0.076 0.063-0.080 0.127-0.139 0.143-0.13s0.029-0.013 0.029-0.049 0.009-0.057 0.021-0.045c0.020 0.020 2.899-2.819 4.934-4.865 0.173-0.174 0.796-0.796 1.384-1.381s1.058-1.082 1.044-1.104c-0.013-0.022-0.008-0.029 0.013-0.017 0.052 0.032 0.25-0.159 0.218-0.21-0.015-0.024-0.008-0.031 0.016-0.016 0.043 0.027 0.199-0.114 0.199-0.18 0-0.020 0.009-0.028 0.021-0.017 0.072 0.072 0.863-0.833 0.842-0.963-0.012-0.073-0.022-4.185-0.022-9.136s-0.013-9.001-0.029-8.999-0.209 0.183-0.43 0.402zM22.215 2.895c-0.268 0.268-0.487 0.511-0.487 0.54s-0.011 0.042-0.024 0.029c-0.019-0.019-1.229 1.165-2.765 2.703-0.084 0.084-0.771 0.774-1.527 1.532l-1.374 1.38v9.15c0 5.033 0.009 9.15 0.021 9.15 0.042 0 0.203-0.184 0.181-0.206-0.013-0.013 0.001-0.024 0.031-0.025s0.166-0.124 0.302-0.274c0.137-0.15 0.358-0.377 0.492-0.504s0.486-0.478 0.783-0.78c0.296-0.302 0.648-0.654 0.78-0.783 0.679-0.66 1.153-1.132 1.139-1.132-0.009 0 0.141-0.16 0.333-0.356s0.362-0.35 0.378-0.341c0.016 0.008 0.029-0.015 0.029-0.051s0.011-0.055 0.024-0.042c0.030 0.030 0.129-0.067 0.129-0.125 0-0.024 0.013-0.036 0.029-0.027 0.027 0.016 0.23-0.17 0.21-0.192-0.005-0.006 0.003-0.014 0.019-0.018 0.053-0.014 0.116-0.088 0.099-0.117-0.009-0.016 0.011-0.029 0.044-0.029s0.051-0.017 0.038-0.038c-0.013-0.021-0.008-0.038 0.011-0.038s0.407-0.369 0.861-0.819l0.827-0.819v-9.068c0-4.987-0.010-9.095-0.023-9.128-0.036-0.093-0.042-0.089-0.559 0.429z"></path>
<path d="M9.126 2.367c0 0.021 0.026 0.038 0.057 0.038s0.057-0.017 0.057-0.038c0-0.021-0.026-0.038-0.057-0.038s-0.057 0.017-0.057 0.038zM9.228 2.431c-0.014 0.014-0.025 4.134-0.024 9.155l0.002 9.13 1.626 1.604c1.36 1.341 3.41 3.366 4.223 4.17 0.11 0.109 0.346 0.353 0.525 0.542s0.346 0.345 0.372 0.346c0.038 0.002 0.048-1.851 0.048-9.145v-9.147l-0.176-0.161c-0.097-0.088-0.281-0.268-0.411-0.4-0.204-0.207-0.758-0.763-1.557-1.561-0.124-0.123-0.465-0.47-0.759-0.769s-0.534-0.535-0.534-0.523-0.116-0.1-0.258-0.249c-0.142-0.149-0.524-0.536-0.85-0.86-0.654-0.651-0.8-0.798-1.597-1.604-0.537-0.543-0.579-0.579-0.631-0.527zM22.859 2.492c-0.013 0.047-0.023 4.164-0.024 9.149l-0 9.063 4.487 4.484c3.556 3.554 4.507 4.484 4.582 4.484h0.095v-18.217l-4.525-4.524c-2.489-2.488-4.54-4.524-4.559-4.524s-0.044 0.039-0.057 0.086z"></path>
<path d="M22.797 2.396c-0.018 3.266-0.010 18.288 0.009 18.269 0.037-0.037 0.057-18.297 0.019-18.297-0.016 0-0.029 0.013-0.029 0.029zM9.13 11.446c0.002 4.972 0.017 9.084 0.034 9.136s0.037-4.016 0.044-9.041c0.011-7.291 0.004-9.136-0.034-9.136s-0.047 1.832-0.044 9.041zM16.019 18.234c0 5.041 0.004 7.097 0.010 4.57s0.005-6.651 0-9.165c-0.005-2.513-0.010-0.446-0.010 4.595zM21.65 21.795l-0.247 0.258 0.258-0.247c0.239-0.23 0.275-0.268 0.247-0.268-0.006 0-0.122 0.116-0.258 0.258z"></path>
<path d="M4.114 7.332c-0.036 0.042-0.052 0.076-0.036 0.076s0.059-0.034 0.095-0.076c0.036-0.042 0.052-0.076 0.036-0.076s-0.059 0.034-0.095 0.076zM2.579 8.857c-0.014 0.022-0.011 0.041 0.006 0.041s0.005 0.017-0.026 0.038c-0.040 0.026-0.043 0.037-0.008 0.038 0.027 0 0.059-0.026 0.071-0.058 0.027-0.070-0.007-0.116-0.043-0.058zM20.099 23.319c-0.192 0.196-0.338 0.362-0.325 0.37s0.183-0.147 0.377-0.342c0.194-0.195 0.34-0.362 0.325-0.369s-0.185 0.146-0.377 0.342zM3.797 26.053l-0.112 0.124 0.124-0.112c0.068-0.062 0.124-0.117 0.124-0.124 0-0.029-0.031-0.004-0.136 0.112zM0.248 29.556c-0.038 0.042-0.061 0.076-0.050 0.076s0.059-0.034 0.107-0.076 0.071-0.076 0.050-0.076c-0.021 0-0.069 0.034-0.107 0.076z"></path>
</svg>
